<svg width="284" height="140" viewBox="0 0 284 140" fill="none" xmlns="http://www.w3.org/2000/svg">
<path d="M2 100.045C150.013 100.045 199.367 138 282 138M2 100.045C150.013 100.045 203.907 127.064 282 127.064M2 100.045C150.013 100.045 191.195 97.1328 282 97.1328M2 100.045C150.013 100.045 216.257 84.4697 282 84.4697M2 100.045C150.467 100.045 223.431 70.6554 282 70.6554M2 100.045C149.559 100.045 230.998 45.3292 282 45.3292M2 100.045C150.013 100.045 214.078 31.5149 282 31.5149M2 100.045C150.181 100.045 217.997 15.8894 282 15.8894M2 100.045C150.181 100.045 195.039 2 282 2" stroke="url(#paint0_linear_152_16)" stroke-width="3" stroke-linecap="round" stroke-linejoin="round"/>
<defs>
<linearGradient id="paint0_linear_152_16" x1="-19.9281" y1="121.054" x2="282" y2="121.054" gradientUnits="userSpaceOnUse">
<stop stop-opacity="0"/>
<stop offset="1" stop-color="#221BD3"/>
</linearGradient>
</defs>
</svg>
