<svg xmlns="http://www.w3.org/2000/svg" width="284" height="140" fill="none"><path stroke="url(#a)" stroke-linecap="round" stroke-linejoin="round" stroke-width="3" d="M2 100.045c148.013 0 197.367 37.955 280 37.955M2 100.045c148.013 0 201.907 27.019 280 27.019M2 100.045c148.013 0 189.195-2.912 280-2.912M2 100.045c148.013 0 214.257-15.575 280-15.575M2 100.045c148.467 0 221.431-29.39 280-29.39M2 100.045c147.559 0 228.998-54.716 280-54.716M2 100.045c148.013 0 212.078-68.53 280-68.53M2 100.045c148.181 0 215.997-84.156 280-84.156M2 100.045C150.181 100.045 195.039 2 282 2"/><defs><linearGradient id="a" x1="-19.928" x2="282" y1="121.054" y2="121.054" gradientUnits="userSpaceOnUse"><stop stop-opacity="0"/><stop offset="1" stop-color="#221BD3"/></linearGradient></defs></svg>